<svg xmlns="http://www.w3.org/2000/svg" fill="none" viewBox="0 0 24 24" id="Godot-Icon--Streamline-Svg-Logos" height="24" width="24">
  <desc>
    Godot Icon Streamline Icon: https://streamlinehq.com
  </desc>
  <path fill="#ffffff" d="M22.312375 16.0194s-0.03425 -0.210175 -0.054275 -0.208325l-3.814 0.368025c-0.3035 0.0293 -0.539175 0.271325 -0.560475 0.575425l-0.104775 1.501775 -2.950625 0.210525 -0.2007 -1.36105c-0.0447 -0.30275 -0.309075 -0.530975 -0.615075 -0.530975H9.986975c-0.3059 0 -0.570275 0.228225 -0.614975 0.530975l-0.2008 1.36105 -2.950625 -0.210525 -0.1048 -1.501775c-0.021275 -0.3042 -0.256975 -0.546225 -0.56045 -0.57555L1.7394475 15.811075c-0.0197125 -0.001875 -0.0341525 0.208525 -0.053865 0.208525l-0.0051625 0.825375 3.231705 0.52115 0.105825 1.5152c0.0214 0.30675 0.268925 0.554775 0.575875 0.5768L9.6575 19.748c0.015375 0.00105 0.030575 0.0017 0.04575 0.0017 0.305375 0 0.569325 -0.228325 0.614025 -0.53105l0.2065 -1.400475h2.952l0.2065 1.400475c0.0446 0.302625 0.308875 0.53095 0.61465 0.53095 0.014975 0 0.02995 -0.000575 0.0446 -0.0016l4.06425 -0.289875c0.30685 -0.022025 0.55445 -0.270075 0.57585 -0.5768l0.105725 -1.5152 3.2303 -0.523475 -0.005275 -0.82325Z" stroke-width="0.25"></path>
  <path fill="#478cbf" d="M9.609875 0.919555c-1.073475 0.238675 -2.13545 0.57085 -3.131075 1.0719775 0.022775 0.8791175 0.0796 1.7214425 0.194825 2.5770675 -0.38665 0.247725 -0.793 0.460325 -1.15415 0.750275 -0.36695 0.2823 -0.741775 0.55245 -1.074 0.8826 -0.663775 -0.439025 -1.366225 -0.851625 -2.08994 -1.215875C1.575405 5.825225 0.84588 6.73145 0.25 7.74545c0.4483125 0.725275 0.9163625 1.405025 1.4217225 2.050125h0.0140625l0 6.223625c0.011385 0.0001 0.02285 0.000625 0.03413 0.00165l3.815435 0.367775c0.199875 0.0193 0.356475 0.1802 0.3704 0.380475l0.117675 1.684275 3.328175 0.237525 0.229225 -1.554525c0.029725 -0.20155 0.2027 -0.35085 0.40655 -0.35085l4.025425 0c0.20375 0 0.3767 0.1493 0.4064 0.35085l0.229225 1.554525 3.328325 -0.237525 0.11755 -1.684275c0.014025 -0.200275 0.170525 -0.361075 0.370375 -0.380475l3.8139 -0.367775c0.0113 -0.00105 0.022625 -0.001525 0.034 -0.00165v-0.49665l0.00165 -0.00055V9.79555h0.01405c0.50545 -0.645125 0.9732 -1.324925 1.421725 -2.050125 -0.595675 -1.014075 -1.32555 -1.9203 -2.105675 -2.75985 -0.723525 0.3642 -1.426325 0.7768 -2.0901 1.215875 -0.332125 -0.330125 -0.706225 -0.6003 -1.0737 -0.8826 -0.361025 -0.289975 -0.76795 -0.502575 -1.153875 -0.750275 0.1149 -0.855625 0.171825 -1.69795 0.1947 -2.577065 -0.9957 -0.501125 -2.0576 -0.8333225 -3.13165 -1.071955 -0.4288 0.7207175 -0.82095 1.5010575 -1.162475 2.26407 -0.404975 -0.067675 -0.81185 -0.092775 -1.219225 -0.097625v-0.00055c-0.00285 0 -0.0055 0.00055 -0.007925 0.00055 -0.002525 0 -0.005225 -0.00055 -0.007775 -0.00055v0.00055c-0.40815 0.00485 -0.814725 0.02995 -1.219775 0.097625 -0.341325 -0.7629425 -0.7332 -1.5433525 -1.16265 -2.26407ZM1.679265 16.842325c0.001585 0.368725 0.00628 0.77265 0.00628 0.8531 0 3.623375 4.59648 5.36495 10.307155 5.385h0.01405c5.710725 -0.020025 10.30575 -1.761625 10.30575 -5.385 0 -0.0819 0.005 -0.484175 0.0067 -0.8531l-3.429475 0.330775 -0.118225 1.693275c-0.014225 0.204075 -0.17655 0.366525 -0.380625 0.381175L14.326675 19.5375c-0.009925 0.00075 -0.019825 0.0011 -0.029625 0.0011 -0.201975 0 -0.376175 -0.148325 -0.406025 -0.351125l-0.233025 -1.58045H10.341825l-0.23305 1.58045c-0.0313 0.212725 -0.221425 0.36575 -0.435625 0.350025l-4.0642 -0.28995c-0.204075 -0.01465 -0.3664 -0.1771 -0.380625 -0.381175l-0.1181 -1.693275 -3.43096 -0.330775Z" stroke-width="0.25"></path>
  <path fill="#ffffff" d="M6.59125 10.0238c-1.26935 0 -2.299025 1.028625 -2.299025 2.298175 0 1.2704 1.0296 2.2995 2.299025 2.2995 1.269975 0 2.29935 -1.0291 2.29935 -2.2995 0 -1.26955 -1.029375 -2.298175 -2.29935 -2.298175Zm10.8174 0c-1.270175 0 -2.2995 1.028625 -2.2995 2.298175 0 1.2704 1.029325 2.2995 2.2995 2.2995 1.269275 0 2.298725 -1.0291 2.298725 -2.2995 0 -1.26955 -1.02945 -2.298175 -2.298725 -2.298175Zm-5.4092 1.34485c-0.408775 0 -0.740075 0.301575 -0.740075 0.672625v2.1167c0 0.371375 0.3313 0.67265 0.740075 0.67265 0.4088 0 0.740925 -0.301275 0.740925 -0.67265l0 -2.1167c0 -0.37105 -0.3321 -0.672625 -0.740925 -0.672625Z" stroke-width="0.25"></path>
  <path fill="#414042" d="M6.811075 10.93245c-0.8429 0 -1.526175 0.683625 -1.526175 1.5263 0 0.84265 0.6833 1.525575 1.526175 1.525575 0.8433 0 1.526275 -0.68295 1.526275 -1.525575 0 -0.84265 -0.683 -1.5263 -1.526275 -1.5263Zm10.377025 0c-0.842675 0 -1.52545 0.683625 -1.52545 1.5263 0 0.84265 0.682825 1.525575 1.52545 1.525575 0.843525 0 1.52615 -0.68295 1.52615 -1.525575 0 -0.84265 -0.68265 -1.5263 -1.52615 -1.5263Z" stroke-width="0.25"></path>
</svg>