<svg xmlns="http://www.w3.org/2000/svg" fill="none" viewBox="0 0 24 24" id="Prometheus--Streamline-Svg-Logos" height="24" width="24">
  <desc>
    Prometheus Streamline Icon: https://streamlinehq.com
  </desc>
  <path fill="#da4e31" d="M12.0001 0.250245C5.510975 0.250245 0.25 5.5106 0.25 11.999925c0 6.489125 5.260975 11.7499 11.7501 11.7499S23.75 18.48905 23.75 11.999925C23.75 5.5106 18.489025 0.250245 12.0001 0.250245Zm0 21.99088c-1.846275 0 -3.34315 -1.23335 -3.34315 -2.754275h6.686325c0 1.520725 -1.4969 2.754275 -3.343175 2.754275Zm5.521825 -3.666425H6.47765v-2.002625h11.044475v2.002625h-0.0002Zm-0.0396 -3.033375H6.509175c-0.0365 -0.0421 -0.073825 -0.083575 -0.109075 -0.126275 -1.130475 -1.372675 -1.396725 -2.0893 -1.6553 -2.8196 -0.00435 -0.02405 1.370825 0.280975 2.346 0.50035 0 0 0.5018 0.116125 1.235425 0.24985 -0.7044 -0.825675 -1.122625 -1.8753 -1.122625 -2.94815 0 -2.355325 1.806475 -4.413525 1.15475 -6.077125 0.6343 0.05165 1.31275 1.338675 1.358575 3.35105 0.674325 -0.93185 0.956525 -2.6336 0.956525 -3.677 0 -1.0803 0.71185 -2.3352125 1.4239 -2.378135 -0.6347 1.04611 0.164425 1.94291 0.874825 4.16761 0.26645 0.835625 0.23245 2.2419 0.43815 3.133725 0.0682 -1.8523 0.3867 -4.55495 1.561775 -5.488025 -0.518375 1.175075 0.076725 2.6454 0.48375 3.352275 0.6567 1.14045 1.054825 2.0045 1.054825 3.63865 0 1.09565 -0.40455 2.127225 -1.08695 2.933625 0.7759 -0.14555 1.3117 -0.2768 1.3117 -0.2768l2.519775 -0.49165c0.0002 -0.0002 -0.365975 1.5056 -1.772875 2.955625Z" stroke-width="0.25"></path>
</svg>